<svg height="244.7" version="1.1" width="600.0000000000001" xmlns="http://www.w3.org/2000/svg" style="overflow: hidden; position: relative; left: -0.5px; top: -0.765625px;"><path fill="#000000" stroke="none" d="M15,193.725L585,193.725L585,194.42499999999998L15,194.42499999999998Z" class="staff l1 v0" style="-webkit-tap-highlight-color: rgba(0, 0, 0, 0);"></path><path fill="#000000" stroke="none" d="M15,185.975L585,185.975L585,186.67499999999998L15,186.67499999999998Z" class="staff l1 v0" style="-webkit-tap-highlight-color: rgba(0, 0, 0, 0);"></path><path fill="#000000" stroke="none" d="M15,178.225L585,178.225L585,178.92499999999998L15,178.92499999999998Z" class="staff l1 v0" style="-webkit-tap-highlight-color: rgba(0, 0, 0, 0);"></path><path fill="#000000" stroke="none" d="M15,170.475L585,170.475L585,171.17499999999998L15,171.17499999999998Z" class="staff l1 v0" style="-webkit-tap-highlight-color: rgba(0, 0, 0, 0);"></path><path fill="#000000" stroke="none" d="M15,162.725L585,162.725L585,163.42499999999998L15,163.42499999999998Z" class="staff top-line l1 v0" style="-webkit-tap-highlight-color: rgba(0, 0, 0, 0);"></path><path fill="#000000" stroke="none" d="M15,101.39500000000001L585.0000000000001,101.39500000000001L585.0000000000001,102.095L15,102.095Z" class="staff l0 v0" style="-webkit-tap-highlight-color: rgba(0, 0, 0, 0);"></path><path fill="#000000" stroke="none" d="M15,93.64500000000001L585.0000000000001,93.64500000000001L585.0000000000001,94.345L15,94.345Z" class="staff l0 v0" style="-webkit-tap-highlight-color: rgba(0, 0, 0, 0);"></path><path fill="#000000" stroke="none" d="M15,85.89500000000001L585.0000000000001,85.89500000000001L585.0000000000001,86.595L15,86.595Z" class="staff l0 v0" style="-webkit-tap-highlight-color: rgba(0, 0, 0, 0);"></path><path fill="#000000" stroke="none" d="M15,78.14500000000001L585.0000000000001,78.14500000000001L585.0000000000001,78.845L15,78.845Z" class="staff l0 v0" style="-webkit-tap-highlight-color: rgba(0, 0, 0, 0);"></path><path fill="#000000" stroke="none" d="M15,70.39500000000001L585.0000000000001,70.39500000000001L585.0000000000001,71.095L15,71.095Z" class="staff top-line l0 v0" style="-webkit-tap-highlight-color: rgba(0, 0, 0, 0);"></path><desc style="-webkit-tap-highlight-color: rgba(0, 0, 0, 0);">Created with Raphaël 2.1.2</desc><defs style="-webkit-tap-highlight-color: rgba(0, 0, 0, 0);"></defs><text x="300" y="37.06" text-anchor="middle" font="" stroke="none" fill="#000000" style="-webkit-tap-highlight-color: rgba(0, 0, 0, 0); text-anchor: middle; text-decoration: none;" font-size="26px" font-style="normal" font-family="&quot;Times New Roman&quot;" font-weight="normal" text-decoration="none" class="title meta-top vundefined"><tspan style="-webkit-tap-highlight-color: rgba(0, 0, 0, 0);" dy="8.513125000000002">deut4503</tspan></text><path fill="#000000" stroke="none" d="M29.689999999999998,56.58500000000001C29.779999999999998,56.495000000000005,29.929999999999996,56.525000000000006,30.049999999999997,56.58500000000001C30.169999999999998,56.67500000000001,30.619999999999997,57.18500000000001,31.009999999999998,57.69500000000001C32.78,60.03500000000001,34.22,63.54500000000001,34.58,66.42500000000001C34.79,67.98500000000001,34.61,69.69500000000001,34.129999999999995,71.28500000000001C33.44,73.59500000000001,32.209999999999994,75.75500000000001,29.899999999999995,78.72500000000001C29.599999999999994,79.11500000000001,29.329999999999995,79.44500000000001,29.299999999999994,79.47500000000001C29.269999999999992,79.53500000000001,29.299999999999994,79.62500000000001,29.479999999999993,80.25500000000001C30.019999999999992,81.93500000000002,30.859999999999992,84.69500000000001,31.159999999999993,85.745L31.249999999999993,86.165L31.639999999999993,86.165C33.10999999999999,86.25500000000001,34.39999999999999,86.67500000000001,35.599999999999994,87.45500000000001C37.42999999999999,88.68500000000002,38.66,90.665,38.989999999999995,92.97500000000001C39.08,93.42500000000001,39.10999999999999,94.26500000000001,39.05,94.715C38.959999999999994,95.735,38.72,96.545,38.3,97.44500000000001C37.459999999999994,99.155,36.019999999999996,100.50500000000001,34.28,101.165L33.95,101.28500000000001L33.980000000000004,102.54500000000002C33.980000000000004,104.28500000000001,33.92,106.17500000000001,33.77,107.16500000000002C33.32,110.22500000000002,31.580000000000002,112.65500000000002,29.300000000000004,113.37500000000001C28.730000000000004,113.55500000000002,28.400000000000006,113.58500000000001,27.710000000000004,113.58500000000001C27.020000000000003,113.58500000000001,26.690000000000005,113.555,26.060000000000006,113.37500000000001C24.920000000000005,113.10500000000002,23.930000000000007,112.53500000000001,23.120000000000005,111.72500000000001C22.130000000000006,110.73500000000001,21.560000000000006,109.56500000000001,21.410000000000004,108.185C21.320000000000004,107.375,21.470000000000002,106.655,21.860000000000003,106.055C22.490000000000002,105.06500000000001,23.690000000000005,104.495,24.860000000000003,104.525C26.360000000000003,104.61500000000001,27.500000000000004,105.845,27.590000000000003,107.465C27.650000000000002,108.935,26.660000000000004,110.165,25.220000000000002,110.435C24.770000000000003,110.495,24.380000000000003,110.465,23.930000000000003,110.345L23.720000000000002,110.255L23.810000000000002,110.375C24.200000000000003,110.915,24.590000000000003,111.305,25.130000000000003,111.635C26.480000000000004,112.50500000000001,28.19,112.655,29.480000000000004,111.995C30.920000000000005,111.275,32.00000000000001,109.715,32.45,107.64500000000001C32.6,106.98500000000001,32.690000000000005,106.14500000000001,32.75,104.61500000000001C32.78,103.775,32.78,101.67500000000001,32.75,101.61500000000001C32.72,101.61500000000001,32.57,101.61500000000001,32.39,101.64500000000001C31.73,101.76500000000001,31.400000000000002,101.76500000000001,30.560000000000002,101.76500000000001C29.51,101.76500000000001,28.85,101.70500000000001,27.950000000000003,101.46500000000002C23.930000000000003,100.47500000000002,20.840000000000003,97.11500000000002,20.150000000000002,93.00500000000002C20.03,92.34500000000003,20.03,92.01500000000003,20.03,91.17500000000003C20.03,90.33500000000002,20.03,90.03500000000003,20.18,89.25500000000002C20.54,86.97500000000002,21.59,84.63500000000002,23.48,81.96500000000002L26.27,78.36500000000002C26.81,77.70500000000003,27.23,77.16500000000002,27.23,77.13500000000002C27.23,77.10500000000002,27.14,76.80500000000002,27.05,76.44500000000002C26.09,73.23500000000003,25.64,71.16500000000002,25.46,68.76500000000001C25.34,67.38500000000002,25.310000000000002,65.67500000000001,25.400000000000002,64.80500000000002C25.73,62.13500000000002,26.78,59.73500000000002,28.520000000000003,57.72500000000002C28.880000000000003,57.30500000000002,29.51,56.675000000000026,29.690000000000005,56.58500000000002ZM31.699999999999996,61.29500000000001C31.549999999999997,60.99500000000001,31.399999999999995,60.75500000000001,31.399999999999995,60.75500000000001C31.369999999999994,60.75500000000001,31.219999999999995,60.84500000000001,31.099999999999994,60.96500000000001C28.699999999999996,62.70500000000001,27.229999999999993,65.165,26.839999999999996,68.07500000000002C26.779999999999998,68.61500000000002,26.779999999999998,69.48500000000001,26.809999999999995,69.96500000000002C26.899999999999995,71.25500000000002,27.289999999999996,73.08500000000002,27.889999999999993,75.18500000000002C28.039999999999992,75.60500000000002,28.129999999999992,75.96500000000002,28.129999999999992,75.99500000000002C28.129999999999992,76.02500000000002,28.96999999999999,74.88500000000002,29.359999999999992,74.31500000000001C31.249999999999993,71.58500000000001,32.239999999999995,69.245,32.50999999999999,66.78500000000001C32.599999999999994,66.21500000000002,32.62999999999999,65.04500000000002,32.56999999999999,64.415C32.47999999999999,63.18500000000001,32.29999999999999,62.495000000000005,31.699999999999992,61.29500000000001ZM28.759999999999994,81.995C28.549999999999994,81.275,28.369999999999994,80.67500000000001,28.339999999999993,80.67500000000001C28.339999999999993,80.67500000000001,27.139999999999993,82.14500000000001,26.479999999999993,83.04500000000002C23.689999999999994,86.67500000000001,22.459999999999994,89.34500000000001,22.129999999999995,92.34500000000001C22.099999999999994,92.555,22.099999999999994,93.03500000000001,22.099999999999994,93.42500000000001C22.099999999999994,94.11500000000001,22.099999999999994,94.17500000000001,22.159999999999993,94.53500000000001C22.279999999999994,95.07500000000002,22.429999999999993,95.525,22.669999999999995,96.00500000000001C23.359999999999996,97.385,24.499999999999993,98.555,26.089999999999996,99.42500000000001C27.049999999999997,99.96500000000002,28.159999999999997,100.32500000000002,29.299999999999997,100.50500000000001C30.08,100.62500000000001,31.339999999999996,100.62500000000001,32.239999999999995,100.47500000000001C32.74999999999999,100.415,32.69,100.44500000000001,32.66,100.17500000000001C32.419999999999995,96.84500000000001,31.939999999999998,93.84500000000001,31.039999999999996,90.09500000000001C30.949999999999996,89.70500000000001,30.859999999999996,89.34500000000001,30.859999999999996,89.31500000000001C30.829999999999995,89.28500000000001,30.439999999999994,89.31500000000001,30.049999999999997,89.40500000000002C29.15,89.58500000000002,28.4,89.97500000000001,27.83,90.54500000000002C27.11,91.26500000000001,26.75,92.19500000000002,26.779999999999998,93.18500000000002C26.839999999999996,94.14500000000001,27.259999999999998,95.01500000000001,28.009999999999998,95.76500000000001C28.369999999999997,96.12500000000001,28.729999999999997,96.39500000000001,29.18,96.66500000000002C29.509999999999998,96.84500000000003,29.54,96.87500000000001,29.6,96.99500000000002C29.78,97.41500000000002,29.42,97.89500000000002,29,97.86500000000002C28.82,97.83500000000002,28.16,97.50500000000002,27.74,97.23500000000003C26.959999999999997,96.72500000000002,26.36,96.12500000000003,25.88,95.40500000000003C24.11,92.70500000000003,24.89,88.98500000000003,27.59,87.21500000000003C27.89,87.00500000000004,28.4,86.73500000000003,28.759999999999998,86.58500000000004C29.06,86.49500000000003,29.779999999999998,86.28500000000004,29.9,86.28500000000004C29.959999999999997,86.28500000000004,29.99,86.28500000000004,29.99,86.25500000000004C30.02,86.22500000000004,29.479999999999997,84.33500000000004,28.759999999999998,81.99500000000003ZM32.53999999999999,89.405C32.35999999999999,89.375,32.17999999999999,89.345,32.14999999999999,89.345C32.11999999999999,89.345,32.14999999999999,89.55499999999999,32.32999999999999,90.365C33.07999999999999,93.545,33.58999999999999,96.66499999999999,33.82999999999999,99.455C33.88999999999999,100.175,33.82999999999999,100.145,34.33999999999999,99.875C35.11999999999999,99.515,35.77999999999999,98.915,36.319999999999986,98.105C37.399999999999984,96.485,37.51999999999999,94.415,36.61999999999998,92.555C35.80999999999998,90.935,34.30999999999998,89.765,32.539999999999985,89.405Z" class="staff-extra l0 v0" style="-webkit-tap-highlight-color: rgba(0, 0, 0, 0);"></path><rect x="15" y="59.120000000000005" width="24.051" height="54.25" r="0" rx="0" ry="0" fill="#000000" stroke="#000000" fill-opacity="0" stroke-opacity="0" style="-webkit-tap-highlight-color: rgba(0, 0, 0, 0);"></rect><path fill="#000000" stroke="none" d="M48.691,72.17500000000001C49.021,72.11500000000001,49.561,72.17500000000001,49.771,72.32500000000002C49.831,72.35500000000002,49.831,72.68500000000002,49.741,77.57500000000002C49.681,80.42500000000001,49.650999999999996,82.76500000000001,49.650999999999996,82.76500000000001C49.650999999999996,82.79500000000002,49.770999999999994,82.73500000000001,49.891,82.64500000000001C50.521,82.22500000000001,51.300999999999995,81.98500000000001,52.080999999999996,81.92500000000001C52.891,81.89500000000001,53.550999999999995,82.135,54.120999999999995,82.70500000000001C54.690999999999995,83.24500000000002,54.99099999999999,83.96500000000002,55.050999999999995,84.74500000000002C55.080999999999996,85.31500000000001,54.96099999999999,85.82500000000002,54.690999999999995,86.36500000000002C54.270999999999994,87.17500000000003,53.67099999999999,87.74500000000002,51.870999999999995,88.97500000000002C50.730999999999995,89.75500000000002,50.431,89.99500000000002,50.071,90.41500000000002C49.891,90.59500000000003,49.681,90.80500000000002,49.620999999999995,90.83500000000002C49.35099999999999,91.01500000000003,49.050999999999995,90.98500000000003,48.81099999999999,90.77500000000002C48.75099999999999,90.68500000000002,48.690999999999995,90.59500000000001,48.660999999999994,90.50500000000002C48.63099999999999,90.44500000000002,48.57099999999999,87.23500000000003,48.480999999999995,82.16500000000002C48.39099999999999,77.63500000000002,48.330999999999996,73.58500000000002,48.300999999999995,73.13500000000002L48.300999999999995,72.35500000000002L48.42099999999999,72.29500000000002C48.480999999999995,72.26500000000001,48.60099999999999,72.20500000000001,48.690999999999995,72.17500000000001ZM51.871,83.18500000000002C51.661,83.06500000000001,51.331,83.03500000000001,51.061,83.12500000000001C50.521,83.27500000000002,50.071,83.75500000000001,49.891,84.38500000000002C49.830999999999996,84.68500000000002,49.771,87.26500000000001,49.830999999999996,88.25500000000002C49.861,88.67500000000003,49.861,89.06500000000003,49.891,89.15500000000003L49.921,89.27500000000003L50.371,88.88500000000003C51.001000000000005,88.34500000000003,51.631,87.71500000000003,51.931000000000004,87.29500000000003C52.231,86.87500000000003,52.531000000000006,86.30500000000004,52.651,85.88500000000003C52.831,85.19500000000004,52.74100000000001,84.41500000000003,52.471000000000004,83.81500000000004C52.321000000000005,83.51500000000004,52.141000000000005,83.30500000000004,51.871,83.18500000000004Z" class="staff-extra l0 v0" style="-webkit-tap-highlight-color: rgba(0, 0, 0, 0);"></path><rect x="49.051" y="76.84450000000001" width="6.75" height="18.800999999999988" r="0" rx="0" ry="0" fill="#000000" stroke="#000000" fill-opacity="0" stroke-opacity="0" style="-webkit-tap-highlight-color: rgba(0, 0, 0, 0);"></rect><path fill="#000000" stroke="none" d="M74.441,71.305C74.711,71.215,74.861,71.185,74.98100000000001,71.275C75.07100000000001,71.33500000000001,75.13100000000001,71.485,75.13100000000001,71.575C75.10100000000001,71.635,73.21100000000001,73.885,70.90100000000001,76.61500000000001C68.59100000000001,79.34500000000001,66.671,81.59500000000001,66.641,81.62500000000001C66.611,81.68500000000002,66.76100000000001,81.68500000000002,69.191,81.68500000000002L71.801,81.68500000000002L71.801,79.31500000000001C71.801,77.12500000000001,71.831,76.94500000000001,71.861,76.85500000000002C71.891,76.79500000000002,72.071,76.67500000000001,72.431,76.43500000000002C73.511,75.71500000000002,73.81099999999999,75.35500000000002,74.291,74.27500000000002C74.411,73.97500000000002,74.53099999999999,73.73500000000001,74.56099999999999,73.70500000000003C74.681,73.58500000000002,74.951,73.64500000000002,75.011,73.82500000000003C75.071,73.91500000000003,75.071,74.39500000000002,75.071,77.78500000000003L75.071,81.68500000000003L76.151,81.68500000000003C77.201,81.68500000000003,77.261,81.68500000000003,77.351,81.74500000000003C77.591,81.89500000000004,77.591,82.28500000000004,77.351,82.43500000000003C77.261,82.49500000000003,77.201,82.49500000000003,76.151,82.49500000000003L75.071,82.49500000000003L75.071,82.82500000000003C75.071,83.39500000000002,75.161,83.93500000000003,75.371,84.35500000000003C75.731,85.10500000000003,76.301,85.52500000000003,77.051,85.61500000000004C77.351,85.64500000000004,77.441,85.70500000000004,77.441,85.91500000000003C77.441,86.06500000000004,77.411,86.09500000000004,77.351,86.15500000000003C77.291,86.21500000000003,77.261,86.21500000000003,76.871,86.21500000000003C76.451,86.21500000000003,76.181,86.18500000000003,74.771,85.97500000000004C73.871,85.82500000000003,73.001,85.82500000000003,72.101,85.97500000000004C70.691,86.18500000000003,70.42099999999999,86.21500000000003,70.001,86.21500000000003C69.611,86.21500000000003,69.581,86.21500000000003,69.521,86.15500000000003C69.461,86.09500000000003,69.461,86.06500000000003,69.461,85.91500000000003C69.461,85.70500000000004,69.521,85.64500000000004,69.821,85.61500000000004C70.571,85.52500000000003,71.14099999999999,85.10500000000003,71.501,84.35500000000003C71.711,83.93500000000003,71.801,83.39500000000004,71.801,82.82500000000003L71.801,82.49500000000003L69.101,82.49500000000003C66.191,82.49500000000003,66.251,82.49500000000003,66.011,82.34500000000003C65.83099999999999,82.22500000000002,65.711,81.95500000000003,65.741,81.80500000000002C65.771,81.74500000000002,65.921,81.56500000000003,66.071,81.35500000000002C66.821,80.45500000000001,67.661,79.28500000000003,68.201,78.32500000000002C68.53099999999999,77.78500000000001,69.041,76.70500000000001,69.25099999999999,76.16500000000002C69.82099999999998,74.75500000000002,70.091,73.52500000000002,70.151,72.11500000000002C70.181,71.48500000000003,70.211,71.39500000000002,70.39099999999999,71.30500000000002L70.511,71.24500000000002L70.961,71.36500000000002C71.621,71.54500000000003,71.981,71.60500000000002,72.431,71.63500000000002C73.03099999999999,71.66500000000002,73.661,71.54500000000002,74.441,71.30500000000002Z" class="symbol l0 v0" style="-webkit-tap-highlight-color: rgba(0, 0, 0, 0);"></path><path fill="#000000" stroke="none" d="M74.441,86.805C74.711,86.715,74.861,86.685,74.98100000000001,86.775C75.07100000000001,86.83500000000001,75.13100000000001,86.985,75.13100000000001,87.075C75.10100000000001,87.135,73.21100000000001,89.385,70.90100000000001,92.11500000000001C68.59100000000001,94.84500000000001,66.671,97.09500000000001,66.641,97.12500000000001C66.611,97.18500000000002,66.76100000000001,97.18500000000002,69.191,97.18500000000002L71.801,97.18500000000002L71.801,94.81500000000001C71.801,92.62500000000001,71.831,92.44500000000001,71.861,92.35500000000002C71.891,92.29500000000002,72.071,92.17500000000001,72.431,91.93500000000002C73.511,91.21500000000002,73.81099999999999,90.85500000000002,74.291,89.77500000000002C74.411,89.47500000000002,74.53099999999999,89.23500000000001,74.56099999999999,89.20500000000003C74.681,89.08500000000002,74.951,89.14500000000002,75.011,89.32500000000003C75.071,89.41500000000003,75.071,89.89500000000002,75.071,93.28500000000003L75.071,97.18500000000003L76.151,97.18500000000003C77.201,97.18500000000003,77.261,97.18500000000003,77.351,97.24500000000003C77.591,97.39500000000004,77.591,97.78500000000004,77.351,97.93500000000003C77.261,97.99500000000003,77.201,97.99500000000003,76.151,97.99500000000003L75.071,97.99500000000003L75.071,98.32500000000003C75.071,98.89500000000002,75.161,99.43500000000003,75.371,99.85500000000003C75.731,100.60500000000003,76.301,101.02500000000003,77.051,101.11500000000004C77.351,101.14500000000004,77.441,101.20500000000004,77.441,101.41500000000003C77.441,101.56500000000004,77.411,101.59500000000004,77.351,101.65500000000003C77.291,101.71500000000003,77.261,101.71500000000003,76.871,101.71500000000003C76.451,101.71500000000003,76.181,101.68500000000003,74.771,101.47500000000004C73.871,101.32500000000003,73.001,101.32500000000003,72.101,101.47500000000004C70.691,101.68500000000003,70.42099999999999,101.71500000000003,70.001,101.71500000000003C69.611,101.71500000000003,69.581,101.71500000000003,69.521,101.65500000000003C69.461,101.59500000000003,69.461,101.56500000000003,69.461,101.41500000000003C69.461,101.20500000000004,69.521,101.14500000000004,69.821,101.11500000000004C70.571,101.02500000000003,71.14099999999999,100.60500000000003,71.501,99.85500000000003C71.711,99.43500000000003,71.801,98.89500000000004,71.801,98.32500000000003L71.801,97.99500000000003L69.101,97.99500000000003C66.191,97.99500000000003,66.251,97.99500000000003,66.011,97.84500000000003C65.83099999999999,97.72500000000002,65.711,97.45500000000003,65.741,97.30500000000002C65.771,97.24500000000002,65.921,97.06500000000003,66.071,96.85500000000002C66.821,95.95500000000001,67.661,94.78500000000003,68.201,93.82500000000002C68.53099999999999,93.28500000000001,69.041,92.20500000000001,69.25099999999999,91.66500000000002C69.82099999999998,90.25500000000002,70.091,89.02500000000002,70.151,87.61500000000002C70.181,86.98500000000003,70.211,86.89500000000002,70.39099999999999,86.80500000000002L70.511,86.74500000000002L70.961,86.86500000000002C71.621,87.04500000000003,71.981,87.10500000000002,72.431,87.13500000000002C73.03099999999999,87.16500000000002,73.661,87.04500000000002,74.441,86.80500000000002Z" class="symbol l0 v0" style="-webkit-tap-highlight-color: rgba(0, 0, 0, 0);"></path><rect x="65.801" y="70.998" width="11.795" height="30.494" r="0" rx="0" ry="0" fill="#000000" stroke="#000000" fill-opacity="0" stroke-opacity="0" style="-webkit-tap-highlight-color: rgba(0, 0, 0, 0);"></rect><path fill="#000000" stroke="none" d="M93.686,78.32000000000001C94.046,78.29,94.88600000000001,78.32000000000001,95.21600000000001,78.38000000000001C96.38600000000001,78.62,97.10600000000001,79.22000000000001,97.376,80.21000000000001C97.436,80.39000000000001,97.436,80.51,97.436,80.87C97.436,81.32000000000001,97.436,81.5,97.286,81.95C96.626,83.99000000000001,94.226,85.88000000000001,91.766,86.33C91.226,86.42,90.32600000000001,86.42,89.936,86.36C88.706,86.09,87.956,85.49,87.686,84.5C87.626,84.32,87.626,84.2,87.626,83.84C87.626,83.39,87.626,83.21000000000001,87.77600000000001,82.76C88.016,81.98,88.52600000000001,81.23,89.21600000000001,80.54C90.41600000000001,79.34,92.066,78.53,93.686,78.32000000000001ZM87.596,109.495L87.596,83.66166666666666L88.596,83.66166666666666L88.596,109.495Z" class="note l0 m0 v0" style="-webkit-tap-highlight-color: rgba(0, 0, 0, 0);"></path><rect x="87.596" y="78.32300000000001" width="9.81" height="31.171999999999997" r="0" rx="0" ry="0" fill="#000000" stroke="#000000" fill-opacity="0" stroke-opacity="0" style="-webkit-tap-highlight-color: rgba(0, 0, 0, 0);"></rect><path fill="#000000" stroke="none" d="M126.22238213446556,86.07000000000001C126.58238213446556,86.04,127.42238213446556,86.07000000000001,127.75238213446556,86.13000000000001C128.92238213446555,86.37,129.64238213446555,86.97000000000001,129.91238213446556,87.96000000000001C129.97238213446556,88.14000000000001,129.97238213446556,88.26,129.97238213446556,88.62C129.97238213446556,89.07000000000001,129.97238213446556,89.25,129.82238213446556,89.7C129.16238213446556,91.74000000000001,126.76238213446555,93.63000000000001,124.30238213446556,94.08C123.76238213446555,94.17,122.86238213446556,94.17,122.47238213446556,94.11C121.24238213446556,93.84,120.49238213446556,93.24,120.22238213446556,92.25C120.16238213446556,92.07,120.16238213446556,91.95,120.16238213446556,91.59C120.16238213446556,91.14,120.16238213446556,90.96000000000001,120.31238213446557,90.51C120.55238213446556,89.73,121.06238213446557,88.98,121.75238213446556,88.29C122.95238213446557,87.09,124.60238213446556,86.28,126.22238213446556,86.07000000000001ZM129.94238213446556,62.995000000000005L129.94238213446556,88.82833333333335L128.94238213446556,88.82833333333335L128.94238213446556,62.995000000000005Z" class="note l0 m0 v0" style="-webkit-tap-highlight-color: rgba(0, 0, 0, 0);"></path><rect x="120.13238213446556" y="62.995000000000005" width="9.81" height="31.171999999999997" r="0" rx="0" ry="0" fill="#000000" stroke="#000000" fill-opacity="0" stroke-opacity="0" style="-webkit-tap-highlight-color: rgba(0, 0, 0, 0);"></rect><path fill="#000000" stroke="none" d="M160.1087642689311,86.07000000000001C160.1687642689311,86.04,160.37876426893112,86.04,160.5887642689311,86.04C161.6387642689311,86.04,162.2987642689311,86.28,162.6887642689311,86.85000000000001C163.10876426893108,87.45,163.13876426893108,88.2,162.8687642689311,89.25000000000001C162.44876426893111,90.84000000000002,161.72876426893112,91.98000000000002,160.7087642689311,92.64000000000001C159.2987642689311,93.57000000000002,157.5287642689311,94.08000000000001,155.3087642689311,94.17000000000002C154.1387642689311,94.20000000000002,153.4187642689311,93.96000000000002,153.0287642689311,93.36000000000001C152.6087642689311,92.76000000000002,152.5787642689311,92.01000000000002,152.8487642689311,90.96000000000001C153.26876426893108,89.37,153.98876426893108,88.23,155.0087642689311,87.57000000000001C155.63876426893108,87.15,156.23876426893108,86.85000000000001,156.98876426893108,86.61000000000001C157.88876426893108,86.31000000000002,158.63876426893108,86.19000000000001,160.10876426893108,86.07000000000001ZM161.3987642689311,86.94000000000001C161.1287642689311,86.85000000000001,160.7687642689311,86.82000000000001,160.4987642689311,86.91000000000001C159.7787642689311,87.15,158.9687642689311,87.60000000000001,157.2287642689311,88.71000000000001C154.88876426893108,90.21000000000001,153.92876426893108,90.96000000000001,153.6587642689311,91.50000000000001C153.29876426893108,92.22000000000001,153.5987642689311,93.00000000000001,154.3187642689311,93.27000000000001C154.5587642689311,93.39000000000001,155.0087642689311,93.36000000000001,155.3087642689311,93.27000000000001C156.1487642689311,92.97000000000001,157.2287642689311,92.34,159.4487642689311,90.9C161.0687642689311,89.82000000000001,161.8187642689311,89.19000000000001,162.0587642689311,88.71000000000001C162.4187642689311,87.99000000000001,162.1187642689311,87.21000000000001,161.3987642689311,86.94000000000001ZM163.03876426893112,62.995000000000005L163.03876426893112,88.82833333333335L162.03876426893112,88.82833333333335L162.03876426893112,62.995000000000005Z" class="note l0 m0 v0" style="-webkit-tap-highlight-color: rgba(0, 0, 0, 0);"></path><rect x="152.6687642689311" y="62.995000000000005" width="10.37" height="31.191000000000003" r="0" rx="0" ry="0" fill="#000000" stroke="#000000" fill-opacity="0" stroke-opacity="0" style="-webkit-tap-highlight-color: rgba(0, 0, 0, 0);"></rect><path fill="#000000" stroke="none" d="M198.68215715404597,101.745L198.68215715404597,70.745L199.28215715404596,70.745L199.28215715404596,101.745Z" class="bar l0 m0 v0" style="-webkit-tap-highlight-color: rgba(0, 0, 0, 0);"></path><rect x="198.68215715404597" y="70.745" width="1" height="31" r="0" rx="0" ry="0" fill="#000000" stroke="#000000" fill-opacity="0" stroke-opacity="0" style="-webkit-tap-highlight-color: rgba(0, 0, 0, 0);"></rect><path fill="#000000" stroke="none" d="M215.77215715404597,82.19500000000001C216.13215715404598,82.165,216.97215715404596,82.19500000000001,217.30215715404597,82.25500000000001C218.47215715404596,82.495,219.19215715404596,83.09500000000001,219.46215715404597,84.08500000000001C219.52215715404597,84.26500000000001,219.52215715404597,84.385,219.52215715404597,84.745C219.52215715404597,85.19500000000001,219.52215715404597,85.375,219.37215715404596,85.825C218.71215715404597,87.86500000000001,216.31215715404596,89.75500000000001,213.85215715404595,90.205C213.31215715404596,90.295,212.41215715404596,90.295,212.02215715404594,90.235C210.79215715404595,89.965,210.04215715404595,89.365,209.77215715404594,88.375C209.71215715404594,88.195,209.71215715404594,88.075,209.71215715404594,87.715C209.71215715404594,87.265,209.71215715404594,87.08500000000001,209.86215715404595,86.635C210.10215715404595,85.855,210.61215715404595,85.105,211.30215715404594,84.415C212.50215715404593,83.215,214.15215715404594,82.405,215.77215715404594,82.19500000000001ZM209.68215715404597,113.37L209.68215715404597,86.245L210.68215715404597,86.245L210.68215715404597,113.37Z" class="note l0 m1 v0" style="-webkit-tap-highlight-color: rgba(0, 0, 0, 0);"></path><rect x="209.68215715404597" y="82.19800000000001" width="9.81" height="31.171999999999997" r="0" rx="0" ry="0" fill="#000000" stroke="#000000" fill-opacity="0" stroke-opacity="0" style="-webkit-tap-highlight-color: rgba(0, 0, 0, 0);"></rect><path fill="#000000" stroke="none" d="M248.30853928851153,89.94500000000001C248.66853928851154,89.915,249.5085392885115,89.94500000000001,249.83853928851153,90.00500000000001C251.0085392885115,90.245,251.7285392885115,90.84500000000001,251.99853928851152,91.83500000000001C252.05853928851153,92.01500000000001,252.05853928851153,92.135,252.05853928851153,92.495C252.05853928851153,92.94500000000001,252.05853928851153,93.125,251.90853928851152,93.575C251.24853928851152,95.61500000000001,248.84853928851152,97.50500000000001,246.3885392885115,97.955C245.84853928851152,98.045,244.9485392885115,98.045,244.5585392885115,97.985C243.3285392885115,97.715,242.5785392885115,97.115,242.3085392885115,96.125C242.2485392885115,95.945,242.2485392885115,95.825,242.2485392885115,95.465C242.2485392885115,95.015,242.2485392885115,94.83500000000001,242.3985392885115,94.385C242.6385392885115,93.605,243.1485392885115,92.855,243.8385392885115,92.165C245.0385392885115,90.965,246.6885392885115,90.155,248.3085392885115,89.94500000000001ZM252.02853928851152,66.87L252.02853928851152,92.70333333333335L251.02853928851152,92.70333333333335L251.02853928851152,66.87Z" class="note l0 m1 v0" style="-webkit-tap-highlight-color: rgba(0, 0, 0, 0);"></path><rect x="242.21853928851152" y="66.87" width="9.81" height="31.171999999999997" r="0" rx="0" ry="0" fill="#000000" stroke="#000000" fill-opacity="0" stroke-opacity="0" style="-webkit-tap-highlight-color: rgba(0, 0, 0, 0);"></rect><path fill="#000000" stroke="none" d="M282.1949214229771,89.94500000000001C282.2549214229771,89.915,282.46492142297706,89.915,282.6749214229771,89.915C283.7249214229771,89.915,284.3849214229771,90.155,284.7749214229771,90.72500000000001C285.19492142297713,91.325,285.2249214229771,92.075,284.9549214229771,93.12500000000001C284.5349214229771,94.71500000000002,283.81492142297714,95.85500000000002,282.7949214229771,96.51500000000001C281.3849214229771,97.44500000000002,279.6149214229771,97.95500000000001,277.3949214229771,98.04500000000002C276.2249214229771,98.07500000000002,275.50492142297713,97.83500000000002,275.11492142297715,97.23500000000001C274.69492142297713,96.63500000000002,274.66492142297716,95.88500000000002,274.93492142297714,94.83500000000001C275.35492142297716,93.245,276.0749214229771,92.105,277.09492142297717,91.44500000000001C277.72492142297716,91.025,278.3249214229772,90.72500000000001,279.0749214229772,90.48500000000001C279.97492142297716,90.18500000000002,280.72492142297716,90.06500000000001,282.1949214229772,89.94500000000001ZM283.4849214229771,90.81500000000001C283.2149214229771,90.72500000000001,282.8549214229771,90.69500000000001,282.5849214229771,90.78500000000001C281.8649214229771,91.025,281.05492142297715,91.47500000000001,279.31492142297714,92.58500000000001C276.97492142297716,94.08500000000001,276.0149214229771,94.83500000000001,275.74492142297714,95.37500000000001C275.38492142297713,96.09500000000001,275.68492142297714,96.87500000000001,276.40492142297717,97.14500000000001C276.6449214229772,97.26500000000001,277.09492142297717,97.23500000000001,277.3949214229772,97.14500000000001C278.23492142297715,96.84500000000001,279.3149214229772,96.215,281.53492142297716,94.775C283.15492142297717,93.69500000000001,283.90492142297717,93.06500000000001,284.1449214229772,92.58500000000001C284.5049214229772,91.86500000000001,284.2049214229772,91.08500000000001,283.48492142297715,90.81500000000001ZM285.1249214229771,66.87L285.1249214229771,92.70333333333335L284.1249214229771,92.70333333333335L284.1249214229771,66.87Z" class="note l0 m1 v0" style="-webkit-tap-highlight-color: rgba(0, 0, 0, 0);"></path><rect x="274.7549214229771" y="66.87" width="10.37" height="31.191000000000003" r="0" rx="0" ry="0" fill="#000000" stroke="#000000" fill-opacity="0" stroke-opacity="0" style="-webkit-tap-highlight-color: rgba(0, 0, 0, 0);"></rect><path fill="#000000" stroke="none" d="M320.76831430809193,101.745L320.76831430809193,70.745L321.36831430809195,70.745L321.36831430809195,101.745Z" class="bar l0 m1 v0" style="-webkit-tap-highlight-color: rgba(0, 0, 0, 0);"></path><rect x="320.76831430809193" y="70.745" width="1" height="31" r="0" rx="0" ry="0" fill="#000000" stroke="#000000" fill-opacity="0" stroke-opacity="0" style="-webkit-tap-highlight-color: rgba(0, 0, 0, 0);"></rect><path fill="#000000" stroke="none" d="M337.8583143080919,93.82000000000001C338.2183143080919,93.79,339.0583143080919,93.82000000000001,339.3883143080919,93.88000000000001C340.5583143080919,94.12,341.27831430809186,94.72000000000001,341.5483143080919,95.71000000000001C341.6083143080919,95.89000000000001,341.6083143080919,96.01,341.6083143080919,96.37C341.6083143080919,96.82000000000001,341.6083143080919,97,341.45831430809193,97.45C340.7983143080919,99.49000000000001,338.3983143080919,101.38000000000001,335.93831430809195,101.83C335.3983143080919,101.92,334.49831430809195,101.92,334.10831430809196,101.86C332.87831430809194,101.59,332.12831430809194,100.99,331.85831430809196,100C331.79831430809196,99.82,331.79831430809196,99.7,331.79831430809196,99.34C331.79831430809196,98.89,331.79831430809196,98.71000000000001,331.94831430809194,98.26C332.18831430809195,97.48,332.69831430809194,96.73,333.38831430809194,96.04C334.5883143080919,94.84,336.23831430809196,94.03,337.85831430809196,93.82000000000001ZM341.57831430809193,70.745L341.57831430809193,96.57833333333333L340.57831430809193,96.57833333333333L340.57831430809193,70.745Z" class="note l0 m2 v0" style="-webkit-tap-highlight-color: rgba(0, 0, 0, 0);"></path><rect x="331.76831430809193" y="70.745" width="9.81" height="31.171999999999997" r="0" rx="0" ry="0" fill="#000000" stroke="#000000" fill-opacity="0" stroke-opacity="0" style="-webkit-tap-highlight-color: rgba(0, 0, 0, 0);"></rect><path fill="#000000" stroke="none" d="M370.39469644255746,89.94500000000001C370.7546964425575,89.915,371.59469644255745,89.94500000000001,371.92469644255743,90.00500000000001C373.09469644255745,90.245,373.8146964425574,90.84500000000001,374.08469644255746,91.83500000000001C374.14469644255746,92.01500000000001,374.14469644255746,92.135,374.14469644255746,92.495C374.14469644255746,92.94500000000001,374.14469644255746,93.125,373.9946964425575,93.575C373.33469644255746,95.61500000000001,370.9346964425575,97.50500000000001,368.4746964425575,97.955C367.9346964425575,98.045,367.0346964425575,98.045,366.6446964425575,97.985C365.4146964425575,97.715,364.6646964425575,97.115,364.3946964425575,96.125C364.3346964425575,95.945,364.3346964425575,95.825,364.3346964425575,95.465C364.3346964425575,95.015,364.3346964425575,94.83500000000001,364.4846964425575,94.385C364.7246964425575,93.605,365.2346964425575,92.855,365.9246964425575,92.165C367.1246964425575,90.965,368.7746964425575,90.155,370.3946964425575,89.94500000000001ZM374.1146964425575,66.87L374.1146964425575,92.70333333333335L373.1146964425575,92.70333333333335L373.1146964425575,66.87Z" class="note l0 m2 v0" style="-webkit-tap-highlight-color: rgba(0, 0, 0, 0);"></path><rect x="364.3046964425575" y="66.87" width="9.81" height="31.171999999999997" r="0" rx="0" ry="0" fill="#000000" stroke="#000000" fill-opacity="0" stroke-opacity="0" style="-webkit-tap-highlight-color: rgba(0, 0, 0, 0);"></rect><path fill="#000000" stroke="none" d="M402.931078577023,86.07000000000001C403.29107857702303,86.04,404.131078577023,86.07000000000001,404.461078577023,86.13000000000001C405.631078577023,86.37,406.351078577023,86.97000000000001,406.621078577023,87.96000000000001C406.681078577023,88.14000000000001,406.681078577023,88.26,406.681078577023,88.62C406.681078577023,89.07000000000001,406.681078577023,89.25,406.53107857702304,89.7C405.871078577023,91.74000000000001,403.47107857702304,93.63000000000001,401.01107857702306,94.08C400.47107857702304,94.17,399.57107857702306,94.17,399.1810785770231,94.11C397.95107857702305,93.84,397.20107857702305,93.24,396.9310785770231,92.25C396.87107857702307,92.07,396.87107857702307,91.95,396.87107857702307,91.59C396.87107857702307,91.14,396.87107857702307,90.96000000000001,397.02107857702305,90.51C397.26107857702306,89.73,397.77107857702305,88.98,398.46107857702304,88.29C399.66107857702303,87.09,401.31107857702307,86.28,402.9310785770231,86.07000000000001ZM406.65107857702304,62.995000000000005L406.65107857702304,88.82833333333335L405.65107857702304,88.82833333333335L405.65107857702304,62.995000000000005Z" class="note l0 m2 v0" style="-webkit-tap-highlight-color: rgba(0, 0, 0, 0);"></path><rect x="396.84107857702304" y="62.995000000000005" width="9.81" height="31.171999999999997" r="0" rx="0" ry="0" fill="#000000" stroke="#000000" fill-opacity="0" stroke-opacity="0" style="-webkit-tap-highlight-color: rgba(0, 0, 0, 0);"></rect><path fill="#000000" stroke="none" d="M435.46746071148857,82.19500000000001C435.8274607114886,82.165,436.66746071148856,82.19500000000001,436.99746071148854,82.25500000000001C438.16746071148856,82.495,438.88746071148853,83.09500000000001,439.15746071148857,84.08500000000001C439.21746071148857,84.26500000000001,439.21746071148857,84.385,439.21746071148857,84.745C439.21746071148857,85.19500000000001,439.21746071148857,85.375,439.0674607114886,85.825C438.40746071148857,87.86500000000001,436.0074607114886,89.75500000000001,433.5474607114886,90.205C433.0074607114886,90.295,432.1074607114886,90.295,431.7174607114886,90.235C430.4874607114886,89.965,429.7374607114886,89.365,429.4674607114886,88.375C429.4074607114886,88.195,429.4074607114886,88.075,429.4074607114886,87.715C429.4074607114886,87.265,429.4074607114886,87.08500000000001,429.5574607114886,86.635C429.7974607114886,85.855,430.3074607114886,85.105,430.9974607114886,84.415C432.1974607114886,83.215,433.8474607114886,82.405,435.4674607114886,82.19500000000001ZM429.3774607114886,113.37L429.3774607114886,86.245L430.3774607114886,86.245L430.3774607114886,113.37Z" class="note l0 m2 v0" style="-webkit-tap-highlight-color: rgba(0, 0, 0, 0);"></path><rect x="429.3774607114886" y="82.19800000000001" width="9.81" height="31.171999999999997" r="0" rx="0" ry="0" fill="#000000" stroke="#000000" fill-opacity="0" stroke-opacity="0" style="-webkit-tap-highlight-color: rgba(0, 0, 0, 0);"></rect><path fill="#000000" stroke="none" d="M461.91384284595415,101.745L461.91384284595415,70.745L462.5138428459542,70.745L462.5138428459542,101.745Z" class="bar l0 m2 v0" style="-webkit-tap-highlight-color: rgba(0, 0, 0, 0);"></path><rect x="461.91384284595415" y="70.745" width="1" height="31" r="0" rx="0" ry="0" fill="#000000" stroke="#000000" fill-opacity="0" stroke-opacity="0" style="-webkit-tap-highlight-color: rgba(0, 0, 0, 0);"></rect><path fill="#000000" stroke="none" d="M479.0038428459541,78.32000000000001C479.36384284595414,78.29,480.2038428459541,78.32000000000001,480.5338428459541,78.38000000000001C481.7038428459541,78.62,482.4238428459541,79.22000000000001,482.6938428459541,80.21000000000001C482.7538428459541,80.39000000000001,482.7538428459541,80.51,482.7538428459541,80.87C482.7538428459541,81.32000000000001,482.7538428459541,81.5,482.60384284595415,81.95C481.9438428459541,83.99000000000001,479.54384284595415,85.88000000000001,477.08384284595417,86.33C476.54384284595415,86.42,475.64384284595417,86.42,475.2538428459542,86.36C474.02384284595416,86.09,473.27384284595416,85.49,473.0038428459542,84.5C472.9438428459542,84.32,472.9438428459542,84.2,472.9438428459542,83.84C472.9438428459542,83.39,472.9438428459542,83.21000000000001,473.09384284595416,82.76C473.33384284595417,81.98,473.84384284595416,81.23,474.53384284595415,80.54C475.73384284595414,79.34,477.3838428459542,78.53,479.0038428459542,78.32000000000001ZM472.91384284595415,109.495L472.91384284595415,83.66166666666666L473.91384284595415,83.66166666666666L473.91384284595415,109.495Z" class="note l0 m3 v0" style="-webkit-tap-highlight-color: rgba(0, 0, 0, 0);"></path><rect x="472.91384284595415" y="78.32300000000001" width="9.81" height="31.171999999999997" r="0" rx="0" ry="0" fill="#000000" stroke="#000000" fill-opacity="0" stroke-opacity="0" style="-webkit-tap-highlight-color: rgba(0, 0, 0, 0);"></rect><path fill="#000000" stroke="none" d="M511.5402249804197,78.32000000000001C511.9002249804197,78.29,512.7402249804197,78.32000000000001,513.0702249804197,78.38000000000001C514.2402249804196,78.62,514.9602249804196,79.22000000000001,515.2302249804196,80.21000000000001C515.2902249804196,80.39000000000001,515.2902249804196,80.51,515.2902249804196,80.87C515.2902249804196,81.32000000000001,515.2902249804196,81.5,515.1402249804196,81.95C514.4802249804196,83.99000000000001,512.0802249804196,85.88000000000001,509.6202249804196,86.33C509.0802249804196,86.42,508.1802249804196,86.42,507.7902249804196,86.36C506.5602249804196,86.09,505.8102249804196,85.49,505.5402249804196,84.5C505.4802249804196,84.32,505.4802249804196,84.2,505.4802249804196,83.84C505.4802249804196,83.39,505.4802249804196,83.21000000000001,505.6302249804196,82.76C505.8702249804196,81.98,506.3802249804196,81.23,507.0702249804196,80.54C508.2702249804196,79.34,509.9202249804196,78.53,511.5402249804196,78.32000000000001ZM505.4502249804197,109.495L505.4502249804197,83.66166666666666L506.4502249804197,83.66166666666666L506.4502249804197,109.495Z" class="note l0 m3 v0" style="-webkit-tap-highlight-color: rgba(0, 0, 0, 0);"></path><rect x="505.4502249804197" y="78.32300000000001" width="9.81" height="31.171999999999997" r="0" rx="0" ry="0" fill="#000000" stroke="#000000" fill-opacity="0" stroke-opacity="0" style="-webkit-tap-highlight-color: rgba(0, 0, 0, 0);"></rect><path fill="#000000" stroke="none" d="M545.4266071148853,78.32000000000001C545.4866071148853,78.29,545.6966071148853,78.29,545.9066071148853,78.29C546.9566071148853,78.29,547.6166071148854,78.53,548.0066071148854,79.10000000000001C548.4266071148853,79.7,548.4566071148854,80.45,548.1866071148853,81.50000000000001C547.7666071148853,83.09000000000002,547.0466071148853,84.23000000000002,546.0266071148853,84.89000000000001C544.6166071148854,85.82000000000002,542.8466071148854,86.33000000000001,540.6266071148854,86.42000000000002C539.4566071148854,86.45000000000002,538.7366071148854,86.21000000000002,538.3466071148854,85.61000000000001C537.9266071148854,85.01000000000002,537.8966071148853,84.26000000000002,538.1666071148854,83.21000000000001C538.5866071148854,81.62,539.3066071148854,80.48,540.3266071148854,79.82000000000001C540.9566071148854,79.4,541.5566071148854,79.10000000000001,542.3066071148854,78.86000000000001C543.2066071148854,78.56000000000002,543.9566071148854,78.44000000000001,545.4266071148854,78.32000000000001ZM546.7166071148853,79.19000000000001C546.4466071148853,79.10000000000001,546.0866071148853,79.07000000000001,545.8166071148853,79.16000000000001C545.0966071148853,79.4,544.2866071148853,79.85000000000001,542.5466071148853,80.96000000000001C540.2066071148853,82.46000000000001,539.2466071148854,83.21000000000001,538.9766071148853,83.75000000000001C538.6166071148853,84.47000000000001,538.9166071148853,85.25000000000001,539.6366071148852,85.52000000000001C539.8766071148852,85.64000000000001,540.3266071148853,85.61000000000001,540.6266071148852,85.52000000000001C541.4666071148853,85.22000000000001,542.5466071148852,84.59,544.7666071148852,83.15C546.3866071148852,82.07000000000001,547.1366071148852,81.44000000000001,547.3766071148852,80.96000000000001C547.7366071148853,80.24000000000001,547.4366071148852,79.46000000000001,546.7166071148853,79.19000000000001ZM537.9866071148853,109.495L537.9866071148853,83.66166666666666L538.9866071148853,83.66166666666666L538.9866071148853,109.495Z" class="note l0 m3 v0" style="-webkit-tap-highlight-color: rgba(0, 0, 0, 0);"></path><rect x="537.9866071148853" y="78.304" width="10.37" height="31.191000000000003" r="0" rx="0" ry="0" fill="#000000" stroke="#000000" fill-opacity="0" stroke-opacity="0" style="-webkit-tap-highlight-color: rgba(0, 0, 0, 0);"></rect><path fill="#000000" stroke="none" d="M584.0000000000001,101.745L584.0000000000001,70.745L584.6000000000001,70.745L584.6000000000001,101.745Z" class="bar l0 m3 v0" style="-webkit-tap-highlight-color: rgba(0, 0, 0, 0);"></path><rect x="584.0000000000001" y="70.745" width="1" height="31" r="0" rx="0" ry="0" fill="#000000" stroke="#000000" fill-opacity="0" stroke-opacity="0" style="-webkit-tap-highlight-color: rgba(0, 0, 0, 0);"></rect><path fill="#000000" stroke="none" d="M29.689999999999998,148.915C29.779999999999998,148.825,29.929999999999996,148.855,30.049999999999997,148.915C30.169999999999998,149.005,30.619999999999997,149.515,31.009999999999998,150.025C32.78,152.365,34.22,155.875,34.58,158.755C34.79,160.315,34.61,162.025,34.129999999999995,163.615C33.44,165.925,32.209999999999994,168.085,29.899999999999995,171.055C29.599999999999994,171.445,29.329999999999995,171.775,29.299999999999994,171.805C29.269999999999992,171.865,29.299999999999994,171.955,29.479999999999993,172.585C30.019999999999992,174.26500000000001,30.859999999999992,177.025,31.159999999999993,178.07500000000002L31.249999999999993,178.495L31.639999999999993,178.495C33.10999999999999,178.585,34.39999999999999,179.005,35.599999999999994,179.785C37.42999999999999,181.015,38.66,182.995,38.989999999999995,185.305C39.08,185.755,39.10999999999999,186.595,39.05,187.04500000000002C38.959999999999994,188.06500000000003,38.72,188.87500000000003,38.3,189.775C37.459999999999994,191.485,36.019999999999996,192.835,34.28,193.495L33.95,193.615L33.980000000000004,194.875C33.980000000000004,196.615,33.92,198.505,33.77,199.495C33.32,202.555,31.580000000000002,204.985,29.300000000000004,205.705C28.730000000000004,205.88500000000002,28.400000000000006,205.91500000000002,27.710000000000004,205.91500000000002C27.020000000000003,205.91500000000002,26.690000000000005,205.88500000000002,26.060000000000006,205.705C24.920000000000005,205.435,23.930000000000007,204.865,23.120000000000005,204.055C22.130000000000006,203.065,21.560000000000006,201.895,21.410000000000004,200.51500000000001C21.320000000000004,199.705,21.470000000000002,198.985,21.860000000000003,198.38500000000002C22.490000000000002,197.395,23.690000000000005,196.82500000000002,24.860000000000003,196.85500000000002C26.360000000000003,196.94500000000002,27.500000000000004,198.175,27.590000000000003,199.79500000000002C27.650000000000002,201.26500000000001,26.660000000000004,202.495,25.220000000000002,202.76500000000001C24.770000000000003,202.82500000000002,24.380000000000003,202.79500000000002,23.930000000000003,202.675L23.720000000000002,202.585L23.810000000000002,202.705C24.200000000000003,203.245,24.590000000000003,203.63500000000002,25.130000000000003,203.965C26.480000000000004,204.835,28.19,204.985,29.480000000000004,204.32500000000002C30.920000000000005,203.60500000000002,32.00000000000001,202.04500000000002,32.45,199.97500000000002C32.6,199.31500000000003,32.690000000000005,198.47500000000002,32.75,196.94500000000002C32.78,196.10500000000002,32.78,194.00500000000002,32.75,193.94500000000002C32.72,193.94500000000002,32.57,193.94500000000002,32.39,193.97500000000002C31.73,194.09500000000003,31.400000000000002,194.09500000000003,30.560000000000002,194.09500000000003C29.51,194.09500000000003,28.85,194.03500000000003,27.950000000000003,193.79500000000002C23.930000000000003,192.805,20.840000000000003,189.44500000000002,20.150000000000002,185.335C20.03,184.675,20.03,184.345,20.03,183.505C20.03,182.665,20.03,182.365,20.18,181.585C20.54,179.305,21.59,176.965,23.48,174.29500000000002L26.27,170.69500000000002C26.81,170.03500000000003,27.23,169.49500000000003,27.23,169.46500000000003C27.23,169.43500000000003,27.14,169.13500000000002,27.05,168.77500000000003C26.09,165.56500000000003,25.64,163.49500000000003,25.46,161.09500000000003C25.34,159.71500000000003,25.310000000000002,158.00500000000002,25.400000000000002,157.13500000000002C25.73,154.46500000000003,26.78,152.06500000000003,28.520000000000003,150.055C28.880000000000003,149.63500000000002,29.51,149.005,29.690000000000005,148.91500000000002ZM31.699999999999996,153.625C31.549999999999997,153.325,31.399999999999995,153.085,31.399999999999995,153.085C31.369999999999994,153.085,31.219999999999995,153.175,31.099999999999994,153.29500000000002C28.699999999999996,155.03500000000003,27.229999999999993,157.495,26.839999999999996,160.40500000000003C26.779999999999998,160.94500000000002,26.779999999999998,161.81500000000003,26.809999999999995,162.29500000000002C26.899999999999995,163.585,27.289999999999996,165.41500000000002,27.889999999999993,167.51500000000001C28.039999999999992,167.935,28.129999999999992,168.29500000000002,28.129999999999992,168.32500000000002C28.129999999999992,168.35500000000002,28.96999999999999,167.215,29.359999999999992,166.645C31.249999999999993,163.91500000000002,32.239999999999995,161.57500000000002,32.50999999999999,159.115C32.599999999999994,158.54500000000002,32.62999999999999,157.375,32.56999999999999,156.745C32.47999999999999,155.51500000000001,32.29999999999999,154.82500000000002,31.699999999999992,153.625ZM28.759999999999994,174.325C28.549999999999994,173.605,28.369999999999994,173.005,28.339999999999993,173.005C28.339999999999993,173.005,27.139999999999993,174.475,26.479999999999993,175.375C23.689999999999994,179.005,22.459999999999994,181.675,22.129999999999995,184.675C22.099999999999994,184.88500000000002,22.099999999999994,185.365,22.099999999999994,185.75500000000002C22.099999999999994,186.44500000000002,22.099999999999994,186.50500000000002,22.159999999999993,186.86500000000004C22.279999999999994,187.40500000000003,22.429999999999993,187.85500000000005,22.669999999999995,188.33500000000004C23.359999999999996,189.71500000000003,24.499999999999993,190.88500000000005,26.089999999999996,191.75500000000002C27.049999999999997,192.29500000000002,28.159999999999997,192.65500000000003,29.299999999999997,192.83500000000004C30.08,192.95500000000004,31.339999999999996,192.95500000000004,32.239999999999995,192.80500000000004C32.74999999999999,192.74500000000003,32.69,192.77500000000003,32.66,192.50500000000002C32.419999999999995,189.175,31.939999999999998,186.175,31.039999999999996,182.425C30.949999999999996,182.03500000000003,30.859999999999996,181.675,30.859999999999996,181.645C30.829999999999995,181.615,30.439999999999994,181.645,30.049999999999997,181.735C29.15,181.91500000000002,28.4,182.305,27.83,182.875C27.11,183.595,26.75,184.525,26.779999999999998,185.515C26.839999999999996,186.475,27.259999999999998,187.345,28.009999999999998,188.095C28.369999999999997,188.455,28.729999999999997,188.725,29.18,188.995C29.509999999999998,189.175,29.54,189.205,29.6,189.32500000000002C29.78,189.745,29.42,190.22500000000002,29,190.19500000000002C28.82,190.16500000000002,28.16,189.835,27.74,189.56500000000003C26.959999999999997,189.05500000000004,26.36,188.455,25.88,187.735C24.11,185.03500000000003,24.89,181.31500000000003,27.59,179.54500000000002C27.89,179.335,28.4,179.06500000000003,28.759999999999998,178.91500000000002C29.06,178.82500000000002,29.779999999999998,178.615,29.9,178.615C29.959999999999997,178.615,29.99,178.615,29.99,178.585C30.02,178.555,29.479999999999997,176.66500000000002,28.759999999999998,174.32500000000002ZM32.53999999999999,181.73499999999999C32.35999999999999,181.70499999999998,32.17999999999999,181.67499999999998,32.14999999999999,181.67499999999998C32.11999999999999,181.67499999999998,32.14999999999999,181.885,32.32999999999999,182.695C33.07999999999999,185.875,33.58999999999999,188.995,33.82999999999999,191.785C33.88999999999999,192.505,33.82999999999999,192.475,34.33999999999999,192.20499999999998C35.11999999999999,191.84499999999997,35.77999999999999,191.24499999999998,36.319999999999986,190.43499999999997C37.399999999999984,188.81499999999997,37.51999999999999,186.74499999999998,36.61999999999998,184.88499999999996C35.80999999999998,183.26499999999996,34.30999999999998,182.09499999999997,32.539999999999985,181.73499999999996Z" class="staff-extra l1 v0" style="-webkit-tap-highlight-color: rgba(0, 0, 0, 0);"></path><rect x="15" y="151.45" width="24.051" height="54.25" r="0" rx="0" ry="0" fill="#000000" stroke="#000000" fill-opacity="0" stroke-opacity="0" style="-webkit-tap-highlight-color: rgba(0, 0, 0, 0);"></rect><path fill="#000000" stroke="none" d="M48.691,164.505C49.021,164.445,49.561,164.505,49.771,164.655C49.831,164.685,49.831,165.01500000000001,49.741,169.905C49.681,172.755,49.650999999999996,175.095,49.650999999999996,175.095C49.650999999999996,175.125,49.770999999999994,175.065,49.891,174.975C50.521,174.555,51.300999999999995,174.315,52.080999999999996,174.255C52.891,174.225,53.550999999999995,174.465,54.120999999999995,175.035C54.690999999999995,175.575,54.99099999999999,176.295,55.050999999999995,177.075C55.080999999999996,177.64499999999998,54.96099999999999,178.155,54.690999999999995,178.695C54.270999999999994,179.505,53.67099999999999,180.075,51.870999999999995,181.305C50.730999999999995,182.085,50.431,182.32500000000002,50.071,182.745C49.891,182.925,49.681,183.135,49.620999999999995,183.165C49.35099999999999,183.345,49.050999999999995,183.315,48.81099999999999,183.105C48.75099999999999,183.015,48.690999999999995,182.92499999999998,48.660999999999994,182.83499999999998C48.63099999999999,182.77499999999998,48.57099999999999,179.56499999999997,48.480999999999995,174.49499999999998C48.39099999999999,169.96499999999997,48.330999999999996,165.91499999999996,48.300999999999995,165.46499999999997L48.300999999999995,164.68499999999997L48.42099999999999,164.62499999999997C48.480999999999995,164.59499999999997,48.60099999999999,164.53499999999997,48.690999999999995,164.50499999999997ZM51.871,175.515C51.661,175.39499999999998,51.331,175.36499999999998,51.061,175.45499999999998C50.521,175.605,50.071,176.08499999999998,49.891,176.71499999999997C49.830999999999996,177.015,49.771,179.59499999999997,49.830999999999996,180.58499999999998C49.861,181.00499999999997,49.861,181.39499999999998,49.891,181.48499999999999L49.921,181.605L50.371,181.215C51.001000000000005,180.675,51.631,180.04500000000002,51.931000000000004,179.625C52.231,179.205,52.531000000000006,178.635,52.651,178.215C52.831,177.525,52.74100000000001,176.745,52.471000000000004,176.145C52.321000000000005,175.845,52.141000000000005,175.63500000000002,51.871,175.51500000000001Z" class="staff-extra l1 v0" style="-webkit-tap-highlight-color: rgba(0, 0, 0, 0);"></path><rect x="49.051" y="169.1745" width="6.75" height="18.800999999999988" r="0" rx="0" ry="0" fill="#000000" stroke="#000000" fill-opacity="0" stroke-opacity="0" style="-webkit-tap-highlight-color: rgba(0, 0, 0, 0);"></rect><path fill="#000000" stroke="none" d="M65.801,194.075L65.801,163.075L66.401,163.075L66.401,194.075Z" class="bar l1 m0 v0" style="-webkit-tap-highlight-color: rgba(0, 0, 0, 0);"></path><rect x="65.801" y="163.075" width="1" height="31" r="0" rx="0" ry="0" fill="#000000" stroke="#000000" fill-opacity="0" stroke-opacity="0" style="-webkit-tap-highlight-color: rgba(0, 0, 0, 0);"></rect><path fill="#000000" stroke="none" d="M82.891,170.64999999999998C83.251,170.61999999999998,84.09100000000001,170.64999999999998,84.421,170.70999999999998C85.59100000000001,170.95,86.311,171.54999999999998,86.581,172.54C86.641,172.72,86.641,172.84,86.641,173.2C86.641,173.64999999999998,86.641,173.82999999999998,86.491,174.28C85.831,176.32,83.431,178.21,80.971,178.66C80.431,178.75,79.531,178.75,79.141,178.69C77.911,178.42,77.161,177.82,76.891,176.82999999999998C76.831,176.64999999999998,76.831,176.52999999999997,76.831,176.17C76.831,175.72,76.831,175.54,76.98100000000001,175.08999999999997C77.221,174.30999999999997,77.73100000000001,173.55999999999997,78.421,172.86999999999998C79.62100000000001,171.67,81.271,170.85999999999999,82.891,170.64999999999998ZM76.801,201.825L76.801,175.99166666666665L77.801,175.99166666666665L77.801,201.825Z" class="note l1 m0 v0" style="-webkit-tap-highlight-color: rgba(0, 0, 0, 0);"></path><rect x="76.801" y="170.653" width="9.81" height="31.171999999999997" r="0" rx="0" ry="0" fill="#000000" stroke="#000000" fill-opacity="0" stroke-opacity="0" style="-webkit-tap-highlight-color: rgba(0, 0, 0, 0);"></rect><path fill="#000000" stroke="none" d="M117.6134178670301,178.39999999999998C117.9734178670301,178.36999999999998,118.8134178670301,178.39999999999998,119.1434178670301,178.45999999999998C120.3134178670301,178.7,121.0334178670301,179.29999999999998,121.30341786703009,180.29C121.3634178670301,180.47,121.3634178670301,180.59,121.3634178670301,180.95C121.3634178670301,181.39999999999998,121.3634178670301,181.57999999999998,121.21341786703009,182.03C120.55341786703009,184.07,118.15341786703009,185.96,115.69341786703009,186.41C115.15341786703009,186.5,114.2534178670301,186.5,113.8634178670301,186.44C112.63341786703009,186.17,111.88341786703009,185.57,111.6134178670301,184.57999999999998C111.55341786703009,184.39999999999998,111.55341786703009,184.27999999999997,111.55341786703009,183.92C111.55341786703009,183.47,111.55341786703009,183.29,111.7034178670301,182.83999999999997C111.94341786703009,182.05999999999997,112.4534178670301,181.30999999999997,113.1434178670301,180.61999999999998C114.3434178670301,179.42,115.99341786703009,178.60999999999999,117.6134178670301,178.39999999999998ZM121.3334178670301,155.325L121.3334178670301,181.15833333333333L120.3334178670301,181.15833333333333L120.3334178670301,155.325Z" class="note l1 m0 v0" style="-webkit-tap-highlight-color: rgba(0, 0, 0, 0);"></path><rect x="111.52341786703009" y="155.325" width="9.81" height="31.171999999999997" r="0" rx="0" ry="0" fill="#000000" stroke="#000000" fill-opacity="0" stroke-opacity="0" style="-webkit-tap-highlight-color: rgba(0, 0, 0, 0);"></rect><path fill="#000000" stroke="none" d="M153.68583573406016,178.39999999999998C153.74583573406017,178.36999999999998,153.95583573406017,178.36999999999998,154.16583573406015,178.36999999999998C155.21583573406016,178.36999999999998,155.87583573406016,178.60999999999999,156.26583573406015,179.17999999999998C156.68583573406013,179.77999999999997,156.71583573406014,180.52999999999997,156.44583573406015,181.57999999999998C156.02583573406017,183.17,155.30583573406017,184.30999999999997,154.28583573406016,184.96999999999997C152.87583573406016,185.89999999999998,151.10583573406015,186.40999999999997,148.88583573406015,186.49999999999997C147.71583573406016,186.52999999999997,146.99583573406017,186.28999999999996,146.60583573406015,185.68999999999997C146.18583573406016,185.08999999999997,146.15583573406016,184.33999999999997,146.42583573406014,183.28999999999996C146.84583573406013,181.69999999999996,147.56583573406013,180.55999999999997,148.58583573406014,179.89999999999998C149.21583573406014,179.48,149.81583573406013,179.17999999999998,150.56583573406013,178.93999999999997C151.46583573406014,178.63999999999996,152.21583573406014,178.51999999999998,153.68583573406013,178.39999999999998ZM154.97583573406015,179.26999999999998C154.70583573406014,179.17999999999998,154.34583573406016,179.14999999999998,154.07583573406015,179.23999999999998C153.35583573406015,179.48,152.54583573406015,179.92999999999998,150.80583573406014,181.04C148.46583573406014,182.54,147.50583573406013,183.29,147.23583573406015,183.82999999999998C146.87583573406013,184.54999999999998,147.17583573406014,185.32999999999998,147.89583573406014,185.6C148.13583573406015,185.72,148.58583573406014,185.69,148.88583573406015,185.6C149.72583573406015,185.29999999999998,150.80583573406014,184.67,153.02583573406014,183.23C154.64583573406014,182.14999999999998,155.39583573406014,181.51999999999998,155.63583573406015,181.04C155.99583573406017,180.32,155.69583573406015,179.54,154.97583573406015,179.26999999999998ZM156.61583573406017,155.325L156.61583573406017,181.15833333333333L155.61583573406017,181.15833333333333L155.61583573406017,155.325Z" class="note l1 m0 v0" style="-webkit-tap-highlight-color: rgba(0, 0, 0, 0);"></path><rect x="146.24583573406017" y="155.325" width="10.37" height="31.191000000000003" r="0" rx="0" ry="0" fill="#000000" stroke="#000000" fill-opacity="0" stroke-opacity="0" style="-webkit-tap-highlight-color: rgba(0, 0, 0, 0);"></rect><path fill="#000000" stroke="none" d="M195.35075,194.075L195.35075,163.075L195.95075,163.075L195.95075,194.075Z" class="bar l1 m0 v0" style="-webkit-tap-highlight-color: rgba(0, 0, 0, 0);"></path><rect x="195.35075" y="163.075" width="1" height="31" r="0" rx="0" ry="0" fill="#000000" stroke="#000000" fill-opacity="0" stroke-opacity="0" style="-webkit-tap-highlight-color: rgba(0, 0, 0, 0);"></rect><path fill="#000000" stroke="none" d="M212.44075,174.52499999999998C212.80075000000002,174.49499999999998,213.64075,174.52499999999998,213.97075,174.58499999999998C215.14075,174.825,215.86075,175.42499999999998,216.13075,176.415C216.19075,176.595,216.19075,176.715,216.19075,177.075C216.19075,177.52499999999998,216.19075,177.70499999999998,216.04075,178.155C215.38075,180.195,212.98075,182.085,210.52075,182.535C209.98075,182.625,209.08075,182.625,208.69074999999998,182.565C207.46075,182.295,206.71075,181.695,206.44074999999998,180.70499999999998C206.38074999999998,180.52499999999998,206.38074999999998,180.40499999999997,206.38074999999998,180.045C206.38074999999998,179.595,206.38074999999998,179.415,206.53074999999998,178.96499999999997C206.77075,178.18499999999997,207.28074999999998,177.43499999999997,207.97074999999998,176.74499999999998C209.17074999999997,175.545,210.82074999999998,174.73499999999999,212.44074999999998,174.52499999999998ZM206.35075,205.7L206.35075,178.575L207.35075,178.575L207.35075,205.7Z" class="note l1 m1 v0" style="-webkit-tap-highlight-color: rgba(0, 0, 0, 0);"></path><rect x="206.35075" y="174.528" width="9.81" height="31.171999999999997" r="0" rx="0" ry="0" fill="#000000" stroke="#000000" fill-opacity="0" stroke-opacity="0" style="-webkit-tap-highlight-color: rgba(0, 0, 0, 0);"></rect><path fill="#000000" stroke="none" d="M247.1631678670301,182.27499999999998C247.5231678670301,182.24499999999998,248.36316786703009,182.27499999999998,248.6931678670301,182.33499999999998C249.86316786703009,182.575,250.58316786703008,183.17499999999998,250.8531678670301,184.165C250.9131678670301,184.345,250.9131678670301,184.465,250.9131678670301,184.825C250.9131678670301,185.27499999999998,250.9131678670301,185.45499999999998,250.7631678670301,185.905C250.1031678670301,187.945,247.7031678670301,189.835,245.24316786703008,190.285C244.7031678670301,190.375,243.80316786703008,190.375,243.41316786703007,190.315C242.18316786703008,190.045,241.43316786703008,189.445,241.16316786703007,188.45499999999998C241.10316786703007,188.27499999999998,241.10316786703007,188.15499999999997,241.10316786703007,187.795C241.10316786703007,187.345,241.10316786703007,187.165,241.25316786703007,186.71499999999997C241.49316786703008,185.93499999999997,242.00316786703007,185.18499999999997,242.69316786703007,184.49499999999998C243.89316786703006,183.295,245.54316786703006,182.48499999999999,247.16316786703007,182.27499999999998ZM250.8831678670301,159.2L250.8831678670301,185.03333333333333L249.8831678670301,185.03333333333333L249.8831678670301,159.2Z" class="note l1 m1 v0" style="-webkit-tap-highlight-color: rgba(0, 0, 0, 0);"></path><rect x="241.0731678670301" y="159.2" width="9.81" height="31.171999999999997" r="0" rx="0" ry="0" fill="#000000" stroke="#000000" fill-opacity="0" stroke-opacity="0" style="-webkit-tap-highlight-color: rgba(0, 0, 0, 0);"></rect><path fill="#000000" stroke="none" d="M283.2355857340602,182.27499999999998C283.2955857340602,182.24499999999998,283.50558573406016,182.24499999999998,283.7155857340602,182.24499999999998C284.7655857340602,182.24499999999998,285.4255857340602,182.48499999999999,285.8155857340602,183.05499999999998C286.23558573406024,183.65499999999997,286.2655857340602,184.40499999999997,285.9955857340602,185.45499999999998C285.5755857340602,187.045,284.85558573406024,188.18499999999997,283.8355857340602,188.84499999999997C282.4255857340602,189.77499999999998,280.6555857340602,190.28499999999997,278.4355857340602,190.37499999999997C277.2655857340602,190.40499999999997,276.54558573406024,190.16499999999996,276.15558573406025,189.56499999999997C275.73558573406024,188.96499999999997,275.70558573406026,188.21499999999997,275.97558573406025,187.16499999999996C276.39558573406026,185.57499999999996,277.11558573406023,184.43499999999997,278.13558573406027,183.77499999999998C278.76558573406027,183.355,279.3655857340603,183.05499999999998,280.1155857340603,182.81499999999997C281.01558573406027,182.51499999999996,281.76558573406027,182.39499999999998,283.2355857340603,182.27499999999998ZM284.5255857340602,183.14499999999998C284.2555857340602,183.05499999999998,283.8955857340602,183.02499999999998,283.6255857340602,183.11499999999998C282.9055857340602,183.355,282.09558573406025,183.80499999999998,280.35558573406024,184.915C278.01558573406027,186.415,277.05558573406023,187.165,276.78558573406025,187.70499999999998C276.42558573406023,188.42499999999998,276.72558573406025,189.20499999999998,277.4455857340603,189.475C277.6855857340603,189.595,278.13558573406027,189.565,278.4355857340603,189.475C279.27558573406026,189.17499999999998,280.3555857340603,188.545,282.57558573406027,187.105C284.1955857340603,186.02499999999998,284.9455857340603,185.39499999999998,285.1855857340603,184.915C285.5455857340603,184.195,285.2455857340603,183.415,284.52558573406026,183.14499999999998ZM286.1655857340602,159.2L286.1655857340602,185.03333333333333L285.1655857340602,185.03333333333333L285.1655857340602,159.2Z" class="note l1 m1 v0" style="-webkit-tap-highlight-color: rgba(0, 0, 0, 0);"></path><rect x="275.7955857340602" y="159.2" width="10.37" height="31.191000000000003" r="0" rx="0" ry="0" fill="#000000" stroke="#000000" fill-opacity="0" stroke-opacity="0" style="-webkit-tap-highlight-color: rgba(0, 0, 0, 0);"></rect><path fill="#000000" stroke="none" d="M324.9005,194.075L324.9005,163.075L325.50050000000005,163.075L325.50050000000005,194.075Z" class="bar l1 m1 v0" style="-webkit-tap-highlight-color: rgba(0, 0, 0, 0);"></path><rect x="324.9005" y="163.075" width="1" height="31" r="0" rx="0" ry="0" fill="#000000" stroke="#000000" fill-opacity="0" stroke-opacity="0" style="-webkit-tap-highlight-color: rgba(0, 0, 0, 0);"></rect><path fill="#000000" stroke="none" d="M341.9905,186.14999999999998C342.3505,186.11999999999998,343.1905,186.14999999999998,343.52049999999997,186.20999999999998C344.6905,186.45,345.41049999999996,187.04999999999998,345.6805,188.04C345.7405,188.22,345.7405,188.34,345.7405,188.7C345.7405,189.14999999999998,345.7405,189.32999999999998,345.5905,189.78C344.9305,191.82,342.5305,193.71,340.07050000000004,194.16C339.5305,194.25,338.63050000000004,194.25,338.24050000000005,194.19C337.01050000000004,193.92,336.26050000000004,193.32,335.99050000000005,192.32999999999998C335.93050000000005,192.14999999999998,335.93050000000005,192.02999999999997,335.93050000000005,191.67C335.93050000000005,191.22,335.93050000000005,191.04,336.08050000000003,190.58999999999997C336.32050000000004,189.80999999999997,336.83050000000003,189.05999999999997,337.5205,188.36999999999998C338.7205,187.17,340.37050000000005,186.35999999999999,341.99050000000005,186.14999999999998ZM345.7105,163.075L345.7105,188.90833333333333L344.7105,188.90833333333333L344.7105,163.075Z" class="note l1 m2 v0" style="-webkit-tap-highlight-color: rgba(0, 0, 0, 0);"></path><rect x="335.9005" y="163.075" width="9.81" height="31.171999999999997" r="0" rx="0" ry="0" fill="#000000" stroke="#000000" fill-opacity="0" stroke-opacity="0" style="-webkit-tap-highlight-color: rgba(0, 0, 0, 0);"></rect><path fill="#000000" stroke="none" d="M376.71291786703006,178.39999999999998C377.07291786703007,178.36999999999998,377.91291786703005,178.39999999999998,378.24291786703003,178.45999999999998C379.41291786703005,178.7,380.13291786703,179.29999999999998,380.40291786703006,180.29C380.46291786703006,180.47,380.46291786703006,180.59,380.46291786703006,180.95C380.46291786703006,181.39999999999998,380.46291786703006,181.57999999999998,380.3129178670301,182.03C379.65291786703006,184.07,377.2529178670301,185.96,374.7929178670301,186.41C374.2529178670301,186.5,373.3529178670301,186.5,372.9629178670301,186.44C371.7329178670301,186.17,370.9829178670301,185.57,370.7129178670301,184.57999999999998C370.6529178670301,184.39999999999998,370.6529178670301,184.27999999999997,370.6529178670301,183.92C370.6529178670301,183.47,370.6529178670301,183.29,370.8029178670301,182.83999999999997C371.0429178670301,182.05999999999997,371.5529178670301,181.30999999999997,372.2429178670301,180.61999999999998C373.4429178670301,179.42,375.0929178670301,178.60999999999999,376.7129178670301,178.39999999999998ZM380.4329178670301,155.325L380.4329178670301,181.15833333333333L379.4329178670301,181.15833333333333L379.4329178670301,155.325Z" class="note l1 m2 v0" style="-webkit-tap-highlight-color: rgba(0, 0, 0, 0);"></path><rect x="370.6229178670301" y="155.325" width="9.81" height="31.171999999999997" r="0" rx="0" ry="0" fill="#000000" stroke="#000000" fill-opacity="0" stroke-opacity="0" style="-webkit-tap-highlight-color: rgba(0, 0, 0, 0);"></rect><path fill="#000000" stroke="none" d="M411.4353357340602,170.64999999999998C411.7953357340602,170.61999999999998,412.63533573406016,170.64999999999998,412.96533573406015,170.70999999999998C414.13533573406016,170.95,414.85533573406013,171.54999999999998,415.1253357340602,172.54C415.1853357340602,172.72,415.1853357340602,172.84,415.1853357340602,173.2C415.1853357340602,173.64999999999998,415.1853357340602,173.82999999999998,415.0353357340602,174.28C414.3753357340602,176.32,411.9753357340602,178.21,409.5153357340602,178.66C408.9753357340602,178.75,408.0753357340602,178.75,407.68533573406023,178.69C406.4553357340602,178.42,405.7053357340602,177.82,405.43533573406023,176.82999999999998C405.37533573406023,176.64999999999998,405.37533573406023,176.52999999999997,405.37533573406023,176.17C405.37533573406023,175.72,405.37533573406023,175.54,405.5253357340602,175.08999999999997C405.7653357340602,174.30999999999997,406.2753357340602,173.55999999999997,406.9653357340602,172.86999999999998C408.1653357340602,171.67,409.8153357340602,170.85999999999999,411.43533573406023,170.64999999999998ZM405.3453357340602,201.825L405.3453357340602,175.99166666666665L406.3453357340602,175.99166666666665L406.3453357340602,201.825Z" class="note l1 m2 v0" style="-webkit-tap-highlight-color: rgba(0, 0, 0, 0);"></path><rect x="405.3453357340602" y="170.653" width="9.81" height="31.171999999999997" r="0" rx="0" ry="0" fill="#000000" stroke="#000000" fill-opacity="0" stroke-opacity="0" style="-webkit-tap-highlight-color: rgba(0, 0, 0, 0);"></rect><path fill="#000000" stroke="none" d="M446.1577536010903,170.64999999999998C446.5177536010903,170.61999999999998,447.3577536010903,170.64999999999998,447.68775360109026,170.70999999999998C448.8577536010903,170.95,449.57775360109025,171.54999999999998,449.8477536010903,172.54C449.9077536010903,172.72,449.9077536010903,172.84,449.9077536010903,173.2C449.9077536010903,173.64999999999998,449.9077536010903,173.82999999999998,449.7577536010903,174.28C449.0977536010903,176.32,446.6977536010903,178.21,444.23775360109033,178.66C443.6977536010903,178.75,442.79775360109033,178.75,442.40775360109035,178.69C441.17775360109033,178.42,440.42775360109033,177.82,440.15775360109035,176.82999999999998C440.09775360109035,176.64999999999998,440.09775360109035,176.52999999999997,440.09775360109035,176.17C440.09775360109035,175.72,440.09775360109035,175.54,440.2477536010903,175.08999999999997C440.48775360109033,174.30999999999997,440.9977536010903,173.55999999999997,441.6877536010903,172.86999999999998C442.8877536010903,171.67,444.53775360109034,170.85999999999999,446.15775360109035,170.64999999999998ZM440.0677536010903,201.825L440.0677536010903,175.99166666666665L441.0677536010903,175.99166666666665L441.0677536010903,201.825Z" class="note l1 m2 v0" style="-webkit-tap-highlight-color: rgba(0, 0, 0, 0);"></path><rect x="440.0677536010903" y="170.653" width="9.81" height="31.171999999999997" r="0" rx="0" ry="0" fill="#000000" stroke="#000000" fill-opacity="0" stroke-opacity="0" style="-webkit-tap-highlight-color: rgba(0, 0, 0, 0);"></rect><path fill="#000000" stroke="none" d="M474.79017146812043,194.075L474.79017146812043,163.075L475.39017146812046,163.075L475.39017146812046,194.075Z" class="bar l1 m2 v0" style="-webkit-tap-highlight-color: rgba(0, 0, 0, 0);"></path><rect x="474.79017146812043" y="163.075" width="1" height="31" r="0" rx="0" ry="0" fill="#000000" stroke="#000000" fill-opacity="0" stroke-opacity="0" style="-webkit-tap-highlight-color: rgba(0, 0, 0, 0);"></rect><path fill="#000000" stroke="none" d="M493.23017146812043,178.39999999999998C493.29017146812043,178.36999999999998,493.5001714681204,178.36999999999998,493.71017146812045,178.36999999999998C494.76017146812046,178.36999999999998,495.42017146812043,178.60999999999999,495.8101714681205,179.17999999999998C496.2301714681205,179.77999999999997,496.26017146812046,180.52999999999997,495.9901714681205,181.57999999999998C495.57017146812046,183.17,494.8501714681205,184.30999999999997,493.83017146812045,184.96999999999997C492.42017146812043,185.89999999999998,490.65017146812045,186.40999999999997,488.4301714681205,186.49999999999997C487.26017146812046,186.52999999999997,486.5401714681205,186.28999999999996,486.1501714681205,185.68999999999997C485.7301714681205,185.08999999999997,485.7001714681205,184.33999999999997,485.9701714681205,183.28999999999996C486.3901714681205,181.69999999999996,487.1101714681205,180.55999999999997,488.1301714681205,179.89999999999998C488.7601714681205,179.48,489.36017146812054,179.17999999999998,490.11017146812054,178.93999999999997C491.0101714681205,178.63999999999996,491.7601714681205,178.51999999999998,493.23017146812055,178.39999999999998ZM494.52017146812045,179.26999999999998C494.25017146812047,179.17999999999998,493.89017146812046,179.14999999999998,493.6201714681205,179.23999999999998C492.90017146812045,179.48,492.0901714681205,179.92999999999998,490.3501714681205,181.04C488.0101714681205,182.54,487.0501714681205,183.29,486.7801714681205,183.82999999999998C486.4201714681205,184.54999999999998,486.7201714681205,185.32999999999998,487.4401714681205,185.6C487.68017146812053,185.72,488.1301714681205,185.69,488.43017146812053,185.6C489.2701714681205,185.29999999999998,490.35017146812055,184.67,492.5701714681205,183.23C494.1901714681205,182.14999999999998,494.9401714681205,181.51999999999998,495.18017146812053,181.04C495.54017146812055,180.32,495.24017146812054,179.54,494.5201714681205,179.26999999999998ZM496.16017146812044,155.325L496.16017146812044,181.15833333333333L495.16017146812044,181.15833333333333L495.16017146812044,155.325Z" class="note l1 m3 v0" style="-webkit-tap-highlight-color: rgba(0, 0, 0, 0);"></path><rect x="485.79017146812043" y="155.325" width="10.37" height="31.191000000000003" r="0" rx="0" ry="0" fill="#000000" stroke="#000000" fill-opacity="0" stroke-opacity="0" style="-webkit-tap-highlight-color: rgba(0, 0, 0, 0);"></rect><path fill="#000000" stroke="none" d="M534.9550857340602,173.95499999999998L535.0450857340602,173.89499999999998L540.5050857340602,173.89499999999998L545.9950857340602,173.89499999999998L546.0850857340603,173.95499999999998L546.1450857340602,174.045L546.1450857340602,176.23499999999999L546.1450857340602,178.42499999999998L546.0850857340603,178.515L545.9950857340602,178.575L540.5050857340602,178.575L535.0450857340602,178.575L534.9550857340602,178.515L534.8950857340602,178.42499999999998L534.8950857340602,176.23499999999999L534.8950857340602,174.045Z" class="note l1 m3 v0" style="-webkit-tap-highlight-color: rgba(0, 0, 0, 0);"></path><rect x="534.8950857340602" y="172.35999999999999" width="11.25" height="4.680000000000007" r="0" rx="0" ry="0" fill="#000000" stroke="#000000" fill-opacity="0" stroke-opacity="0" style="-webkit-tap-highlight-color: rgba(0, 0, 0, 0);"></rect><path fill="#000000" stroke="none" d="M584.05,194.075L584.05,163.075L584.65,163.075L584.65,194.075Z" class="bar l1 m3 v0" style="-webkit-tap-highlight-color: rgba(0, 0, 0, 0);"></path><rect x="584" y="163.075" width="1" height="31" r="0" rx="0" ry="0" fill="#000000" stroke="#000000" fill-opacity="0" stroke-opacity="0" style="-webkit-tap-highlight-color: rgba(0, 0, 0, 0);"></rect></svg>
